ffmpeg started on 2026-04-01 at 10:42:54
Report written to "D:\Convert\FFMetrics\reports\psnr_report-6.txt"
Log level: 32
Command line:
ffmpeg -hide_banner -nostdin -r 24000/1001 -i "F:\\Convert\\files\\[DC] Make Heroine ga Oosugiru - 07_Telegram_HEVC(256).mkv" -r 24000/1001 -i "F:\\Convert\\files\\[DC] Make Heroine ga Oosugiru - 07_Telegram.mp4" -lavfi "[0:v]settb=AVTB,setpts=PTS-STARTPTS,format=pix_fmts=yuv420p10le,fps=24000/1001,scale=1920:1080:flags=lanczos:param0=3:out_range=limited:out_color_matrix=bt709:out_chroma_loc=left,setsar=1/1,setdar=(1920/1080)*(1/1),colorspace=format=yuv420p10:range=tv:primaries=bt709:trc=bt709:space=bt709:fast=0[main];[1:v]settb=AVTB,setpts=PTS-STARTPTS,format=pix_fmts=yuv420p,fps=24000/1001,scale=1920:1080:flags=lanczos:param0=3:out_range=limited:out_color_matrix=bt709:out_chroma_loc=left,setsar=1/1,setdar=(1920/1080)*(1/1),colorspace=format=yuv420p:range=tv:primaries=bt709:trc=bt709:space=bt709:fast=0[ref];[main][ref]psnr=eof_action=endall:stats_file='D\\:/Convert/FFMetrics/logs/psnr_logfile-6.txt'" -f null -
Input #0, matroska,webm, from 'F:\Convert\files\[DC] Make Heroine ga Oosugiru - 07_Telegram_HEVC(256).mkv':
  Metadata:
    COMPATIBLE_BRANDS: isomiso2avc1mp41
    MAJOR_BRAND     : isom
    MINOR_VERSION   : 512
    ENCODER         : Lavf61.7.100
  Duration: 00:24:06.79, start: -0.021000, bitrate: 984 kb/s
  Stream #0:0: Video: hevc (Main 10), yuv420p10le(tv, bt709, progressive), 1920x1080 [SAR 1:1 DAR 16:9], 23.98 fps, 23.98 tbr, 1k tbn (default)
      Metadata:
        HANDLER_NAME    : VideoHandler
        VENDOR_ID       : [0][0][0][0]
        ENCODER         : Lavc61.19.100 libx265
        BPS             : 787821
        DURATION        : 00:24:06.569708333
        NUMBER_OF_FRAMES: 34683
        NUMBER_OF_BYTES : 142454689
        _STATISTICS_WRITING_APP: mkvpropedit v94.0 ('Initiate') 64-bit
        _STATISTICS_WRITING_DATE_UTC: 2026-03-30 09:28:59
        _STATISTICS_TAGS: BPS DURATION NUMBER_OF_FRAMES NUMBER_OF_BYTES
  Stream #0:1: Audio: aac (LC), 48000 Hz, stereo, fltp (default)
      Metadata:
        HANDLER_NAME    : SoundHandler
        VENDOR_ID       : [0][0][0][0]
        ENCODER         : Lavc61.19.100 aac
        BPS             : 193194
        DURATION        : 00:24:06.784000000
        NUMBER_OF_FRAMES: 67819
        NUMBER_OF_BYTES : 34938755
        _STATISTICS_WRITING_APP: mkvpropedit v94.0 ('Initiate') 64-bit
        _STATISTICS_WRITING_DATE_UTC: 2026-03-30 09:28:59
        _STATISTICS_TAGS: BPS DURATION NUMBER_OF_FRAMES NUMBER_OF_BYTES
Input #1, mov,mp4,m4a,3gp,3g2,mj2, from 'F:\Convert\files\[DC] Make Heroine ga Oosugiru - 07_Telegram.mp4':
  Metadata:
    major_brand     : isom
    minor_version   : 512
    compatible_brands: isomiso2avc1mp41
    encoder         : Lavf60.16.100
  Duration: 00:24:06.74, start: 0.000000, bitrate: 3764 kb/s
  Stream #1:0[0x1](und): Video: h264 (High) (avc1 / 0x31637661), yuv420p(tv, bt709, progressive), 1920x1080 [SAR 1:1 DAR 16:9], 3616 kb/s, 23.98 fps, 23.98 tbr, 24k tbn (default)
      Metadata:
        handler_name    : VideoHandler
        vendor_id       : [0][0][0][0]
        encoder         : Lavc60.31.102 h264_qsv
  Stream #1:1[0x2](und): Audio: aac (HE-AACv2) (mp4a / 0x6134706D), 48000 Hz, stereo, fltp, 144 kb/s (default)
      Metadata:
        handler_name    : SoundHandler
        vendor_id       : [0][0][0][0]
Stream mapping:
  Stream #0:0 (hevc) -> settb:default
  Stream #1:0 (h264) -> settb:default
  psnr:default -> Stream #0:0 (wrapped_avframe)
  Stream #0:1 -> #0:1 (aac (native) -> pcm_s16le (native))
Output #0, null, to 'pipe:':
  Metadata:
    COMPATIBLE_BRANDS: isomiso2avc1mp41
    MAJOR_BRAND     : isom
    MINOR_VERSION   : 512
    encoder         : Lavf61.7.100
  Stream #0:0: Video: wrapped_avframe, yuv420p10le(tv, bt709, progressive), 1920x1080 [SAR 1:1 DAR 16:9], q=2-31, 200 kb/s, 23.98 fps, 23.98 tbn
      Metadata:
        encoder         : Lavc61.19.100 wrapped_avframe
  Stream #0:1: Audio: pcm_s16le, 48000 Hz, stereo, s16, 1536 kb/s (default)
      Metadata:
        HANDLER_NAME    : SoundHandler
        VENDOR_ID       : [0][0][0][0]
        _STATISTICS_TAGS: BPS DURATION NUMBER_OF_FRAMES NUMBER_OF_BYTES
        BPS             : 193194
        DURATION        : 00:24:06.784000000
        NUMBER_OF_FRAMES: 67819
        NUMBER_OF_BYTES : 34938755
        _STATISTICS_WRITING_APP: mkvpropedit v94.0 ('Initiate') 64-bit
        _STATISTICS_WRITING_DATE_UTC: 2026-03-30 09:28:59
        encoder         : Lavc61.19.100 pcm_s16le
frame=  138 fps=0.0 q=-0.0 size=N/A time=00:00:05.75 bitrate=N/A speed=10.9x    frame=  315 fps=304 q=-0.0 size=N/A time=00:00:13.13 bitrate=N/A speed=12.7x    frame=  494 fps=319 q=-0.0 size=N/A time=00:00:20.60 bitrate=N/A speed=13.3x    frame=  683 fps=329 q=-0.0 size=N/A time=00:00:28.48 bitrate=N/A speed=13.7x    frame=  864 fps=334 q=-0.0 size=N/A time=00:00:36.03 bitrate=N/A speed=13.9x    frame=  992 fps=320 q=-0.0 size=N/A time=00:00:41.37 bitrate=N/A speed=13.4x    frame= 1143 fps=317 q=-0.0 size=N/A time=00:00:47.67 bitrate=N/A speed=13.2x    frame= 1291 fps=312 q=-0.0 size=N/A time=00:00:53.84 bitrate=N/A speed=  13x    frame= 1448 fps=312 q=-0.0 size=N/A time=00:01:00.39 bitrate=N/A speed=  13x    frame= 1581 fps=306 q=-0.0 size=N/A time=00:01:05.94 bitrate=N/A speed=12.8x    frame= 1729 fps=305 q=-0.0 size=N/A time=00:01:12.11 bitrate=N/A speed=12.7x    frame= 1890 fps=305 q=-0.0 size=N/A time=00:01:18.82 bitrate=N/A speed=12.7x    frame= 2043 fps=304 q=-0.0 size=N/A time=00:01:25.21 bitrate=N/A speed=12.7x    frame= 2142 fps=297 q=-0.0 size=N/A time=00:01:29.33 bitrate=N/A speed=12.4x    frame= 2288 fps=296 q=-0.0 size=N/A time=00:01:35.42 bitrate=N/A speed=12.3x    frame= 2434 fps=295 q=-0.0 size=N/A time=00:01:41.51 bitrate=N/A speed=12.3x    frame= 2563 fps=292 q=-0.0 size=N/A time=00:01:46.89 bitrate=N/A speed=12.2x    frame= 2723 fps=293 q=-0.0 size=N/A time=00:01:53.57 bitrate=N/A speed=12.2x    frame= 2881 fps=294 q=-0.0 size=N/A time=00:02:00.16 bitrate=N/A speed=12.3x    frame= 3059 fps=296 q=-0.0 size=N/A time=00:02:07.58 bitrate=N/A speed=12.4x    frame= 3248 fps=300 q=-0.0 size=N/A time=00:02:15.46 bitrate=N/A speed=12.5x    frame= 3433 fps=303 q=-0.0 size=N/A time=00:02:23.18 bitrate=N/A speed=12.6x    frame= 3625 fps=305 q=-0.0 size=N/A time=00:02:31.19 bitrate=N/A speed=12.7x    frame= 3807 fps=308 q=-0.0 size=N/A time=00:02:38.78 bitrate=N/A speed=12.8x    frame= 3993 fps=310 q=-0.0 size=N/A time=00:02:46.54 bitrate=N/A speed=12.9x    frame= 4185 fps=312 q=-0.0 size=N/A time=00:02:54.54 bitrate=N/A speed=  13x    frame= 4366 fps=313 q=-0.0 size=N/A time=00:03:02.09 bitrate=N/A speed=13.1x    frame= 4546 fps=315 q=-0.0 size=N/A time=00:03:09.60 bitrate=N/A speed=13.1x    frame= 4744 fps=317 q=-0.0 size=N/A time=00:03:17.86 bitrate=N/A speed=13.2x    frame= 4923 fps=318 q=-0.0 size=N/A time=00:03:25.33 bitrate=N/A speed=13.3x    frame= 5101 fps=319 q=-0.0 size=N/A time=00:03:32.75 bitrate=N/A speed=13.3x    frame= 5278 fps=320 q=-0.0 size=N/A time=00:03:40.13 bitrate=N/A speed=13.3x    frame= 5465 fps=321 q=-0.0 size=N/A time=00:03:47.93 bitrate=N/A speed=13.4x    frame= 5655 fps=323 q=-0.0 size=N/A time=00:03:55.86 bitrate=N/A speed=13.5x    frame= 5850 fps=324 q=-0.0 size=N/A time=00:04:03.99 bitrate=N/A speed=13.5x    frame= 6042 fps=325 q=-0.0 size=N/A time=00:04:12.00 bitrate=N/A speed=13.6x    frame= 6231 fps=327 q=-0.0 size=N/A time=00:04:19.88 bitrate=N/A speed=13.6x    frame= 6423 fps=328 q=-0.0 size=N/A time=00:04:27.89 bitrate=N/A speed=13.7x    frame= 6611 fps=329 q=-0.0 size=N/A time=00:04:35.73 bitrate=N/A speed=13.7x    frame= 6799 fps=330 q=-0.0 size=N/A time=00:04:43.57 bitrate=N/A speed=13.7x    frame= 6998 fps=331 q=-0.0 size=N/A time=00:04:51.87 bitrate=N/A speed=13.8x    frame= 7181 fps=331 q=-0.0 size=N/A time=00:04:59.50 bitrate=N/A speed=13.8x    frame= 7357 fps=331 q=-0.0 size=N/A time=00:05:06.84 bitrate=N/A speed=13.8x    frame= 7531 fps=332 q=-0.0 size=N/A time=00:05:14.10 bitrate=N/A speed=13.8x    frame= 7705 fps=332 q=-0.0 size=N/A time=00:05:21.36 bitrate=N/A speed=13.8x    frame= 7900 fps=333 q=-0.0 size=N/A time=00:05:29.49 bitrate=N/A speed=13.9x    frame= 8075 fps=333 q=-0.0 size=N/A time=00:05:36.79 bitrate=N/A speed=13.9x    frame= 8256 fps=333 q=-0.0 size=N/A time=00:05:44.34 bitrate=N/A speed=13.9x    frame= 8446 fps=334 q=-0.0 size=N/A time=00:05:52.26 bitrate=N/A speed=13.9x    frame= 8631 fps=335 q=-0.0 size=N/A time=00:05:59.98 bitrate=N/A speed=  14x    frame= 8820 fps=335 q=-0.0 size=N/A time=00:06:07.86 bitrate=N/A speed=  14x    frame= 9005 fps=336 q=-0.0 size=N/A time=00:06:15.58 bitrate=N/A speed=  14x    frame= 9195 fps=336 q=-0.0 size=N/A time=00:06:23.50 bitrate=N/A speed=  14x    frame= 9387 fps=337 q=-0.0 size=N/A time=00:06:31.51 bitrate=N/A speed=  14x    frame= 9571 fps=337 q=-0.0 size=N/A time=00:06:39.19 bitrate=N/A speed=14.1x    frame= 9756 fps=338 q=-0.0 size=N/A time=00:06:46.94 bitrate=N/A speed=14.1x    frame= 9950 fps=338 q=-0.0 size=N/A time=00:06:54.99 bitrate=N/A speed=14.1x    frame=10132 fps=339 q=-0.0 size=N/A time=00:07:02.58 bitrate=N/A speed=14.1x    frame=10319 fps=339 q=-0.0 size=N/A time=00:07:10.38 bitrate=N/A speed=14.1x    frame=10505 fps=339 q=-0.0 size=N/A time=00:07:18.14 bitrate=N/A speed=14.2x    frame=10687 fps=339 q=-0.0 size=N/A time=00:07:25.73 bitrate=N/A speed=14.2x    frame=10868 fps=340 q=-0.0 size=N/A time=00:07:33.28 bitrate=N/A speed=14.2x    frame=11052 fps=340 q=-0.0 size=N/A time=00:07:40.96 bitrate=N/A speed=14.2x    frame=11238 fps=340 q=-0.0 size=N/A time=00:07:48.71 bitrate=N/A speed=14.2x    frame=11419 fps=341 q=-0.0 size=N/A time=00:07:56.26 bitrate=N/A speed=14.2x    frame=11608 fps=341 q=-0.0 size=N/A time=00:08:04.15 bitrate=N/A speed=14.2x    frame=11802 fps=341 q=-0.0 size=N/A time=00:08:12.24 bitrate=N/A speed=14.2x    frame=11987 fps=342 q=-0.0 size=N/A time=00:08:19.95 bitrate=N/A speed=14.3x    frame=12174 fps=342 q=-0.0 size=N/A time=00:08:27.75 bitrate=N/A speed=14.3x    frame=12367 fps=342 q=-0.0 size=N/A time=00:08:35.80 bitrate=N/A speed=14.3x    frame=12555 fps=343 q=-0.0 size=N/A time=00:08:43.64 bitrate=N/A speed=14.3x    frame=12743 fps=343 q=-0.0 size=N/A time=00:08:51.48 bitrate=N/A speed=14.3x    frame=12934 fps=343 q=-0.0 size=N/A time=00:08:59.45 bitrate=N/A speed=14.3x    frame=13120 fps=344 q=-0.0 size=N/A time=00:09:07.21 bitrate=N/A speed=14.3x    frame=13303 fps=344 q=-0.0 size=N/A time=00:09:14.84 bitrate=N/A speed=14.3x    frame=13487 fps=344 q=-0.0 size=N/A time=00:09:22.52 bitrate=N/A speed=14.3x    frame=13681 fps=344 q=-0.0 size=N/A time=00:09:30.61 bitrate=N/A speed=14.4x    frame=13872 fps=345 q=-0.0 size=N/A time=00:09:38.57 bitrate=N/A speed=14.4x    frame=14048 fps=345 q=-0.0 size=N/A time=00:09:45.91 bitrate=N/A speed=14.4x    frame=14210 fps=344 q=-0.0 size=N/A time=00:09:52.67 bitrate=N/A speed=14.4x    frame=14396 fps=345 q=-0.0 size=N/A time=00:10:00.43 bitrate=N/A speed=14.4x    frame=14572 fps=344 q=-0.0 size=N/A time=00:10:07.77 bitrate=N/A speed=14.4x    frame=14765 fps=345 q=-0.0 size=N/A time=00:10:15.82 bitrate=N/A speed=14.4x    frame=14950 fps=345 q=-0.0 size=N/A time=00:10:23.53 bitrate=N/A speed=14.4x    frame=15113 fps=345 q=-0.0 size=N/A time=00:10:30.33 bitrate=N/A speed=14.4x    frame=15279 fps=344 q=-0.0 size=N/A time=00:10:37.26 bitrate=N/A speed=14.4x    frame=15454 fps=344 q=-0.0 size=N/A time=00:10:44.56 bitrate=N/A speed=14.4x    frame=15628 fps=344 q=-0.0 size=N/A time=00:10:51.81 bitrate=N/A speed=14.4x    frame=15810 fps=344 q=-0.0 size=N/A time=00:10:59.40 bitrate=N/A speed=14.4x    frame=16002 fps=345 q=-0.0 size=N/A time=00:11:07.41 bitrate=N/A speed=14.4x    frame=16196 fps=345 q=-0.0 size=N/A time=00:11:15.50 bitrate=N/A speed=14.4x    frame=16378 fps=345 q=-0.0 size=N/A time=00:11:23.09 bitrate=N/A speed=14.4x    frame=16544 fps=345 q=-0.0 size=N/A time=00:11:30.02 bitrate=N/A speed=14.4x    frame=16734 fps=345 q=-0.0 size=N/A time=00:11:37.94 bitrate=N/A speed=14.4x    frame=16923 fps=345 q=-0.0 size=N/A time=00:11:45.83 bitrate=N/A speed=14.4x    frame=17109 fps=345 q=-0.0 size=N/A time=00:11:53.58 bitrate=N/A speed=14.4x    frame=17294 fps=346 q=-0.0 size=N/A time=00:12:01.30 bitrate=N/A speed=14.4x    frame=17477 fps=346 q=-0.0 size=N/A time=00:12:08.93 bitrate=N/A speed=14.4x    frame=17649 fps=345 q=-0.0 size=N/A time=00:12:16.11 bitrate=N/A speed=14.4x    frame=17837 fps=346 q=-0.0 size=N/A time=00:12:23.95 bitrate=N/A speed=14.4x    frame=18027 fps=346 q=-0.0 size=N/A time=00:12:31.87 bitrate=N/A speed=14.4x    frame=18202 fps=346 q=-0.0 size=N/A time=00:12:39.17 bitrate=N/A speed=14.4x    frame=18374 fps=346 q=-0.0 size=N/A time=00:12:46.34 bitrate=N/A speed=14.4x    frame=18557 fps=346 q=-0.0 size=N/A time=00:12:53.98 bitrate=N/A speed=14.4x    frame=18752 fps=346 q=-0.0 size=N/A time=00:13:02.11 bitrate=N/A speed=14.4x    frame=18939 fps=346 q=-0.0 size=N/A time=00:13:09.91 bitrate=N/A speed=14.4x    frame=19125 fps=346 q=-0.0 size=N/A time=00:13:17.67 bitrate=N/A speed=14.4x    frame=19316 fps=347 q=-0.0 size=N/A time=00:13:25.63 bitrate=N/A speed=14.5x    frame=19502 fps=347 q=-0.0 size=N/A time=00:13:33.39 bitrate=N/A speed=14.5x    frame=19695 fps=347 q=-0.0 size=N/A time=00:13:41.44 bitrate=N/A speed=14.5x    frame=19879 fps=347 q=-0.0 size=N/A time=00:13:49.11 bitrate=N/A speed=14.5x    frame=20078 fps=347 q=-0.0 size=N/A time=00:13:57.41 bitrate=N/A speed=14.5x    frame=20255 fps=347 q=-0.0 size=N/A time=00:14:04.80 bitrate=N/A speed=14.5x    frame=20440 fps=348 q=-0.0 size=N/A time=00:14:12.51 bitrate=N/A speed=14.5x    frame=20620 fps=347 q=-0.0 size=N/A time=00:14:20.02 bitrate=N/A speed=14.5x    frame=20804 fps=348 q=-0.0 size=N/A time=00:14:27.70 bitrate=N/A speed=14.5x    frame=20992 fps=348 q=-0.0 size=N/A time=00:14:35.54 bitrate=N/A speed=14.5x    frame=21182 fps=348 q=-0.0 size=N/A time=00:14:43.46 bitrate=N/A speed=14.5x    frame=21369 fps=348 q=-0.0 size=N/A time=00:14:51.26 bitrate=N/A speed=14.5x    frame=21541 fps=348 q=-0.0 size=N/A time=00:14:58.43 bitrate=N/A speed=14.5x    frame=21709 fps=348 q=-0.0 size=N/A time=00:15:05.44 bitrate=N/A speed=14.5x    frame=21896 fps=348 q=-0.0 size=N/A time=00:15:13.24 bitrate=N/A speed=14.5x    frame=22070 fps=348 q=-0.0 size=N/A time=00:15:20.50 bitrate=N/A speed=14.5x    frame=22267 fps=348 q=-0.0 size=N/A time=00:15:28.71 bitrate=N/A speed=14.5x    frame=22455 fps=348 q=-0.0 size=N/A time=00:15:36.56 bitrate=N/A speed=14.5x    frame=22646 fps=348 q=-0.0 size=N/A time=00:15:44.52 bitrate=N/A speed=14.5x    frame=22834 fps=348 q=-0.0 size=N/A time=00:15:52.36 bitrate=N/A speed=14.5x    frame=23020 fps=349 q=-0.0 size=N/A time=00:16:00.12 bitrate=N/A speed=14.5x    frame=23205 fps=349 q=-0.0 size=N/A time=00:16:07.84 bitrate=N/A speed=14.5x    frame=23396 fps=349 q=-0.0 size=N/A time=00:16:15.80 bitrate=N/A speed=14.6x    frame=23590 fps=349 q=-0.0 size=N/A time=00:16:23.89 bitrate=N/A speed=14.6x    frame=23773 fps=349 q=-0.0 size=N/A time=00:16:31.53 bitrate=N/A speed=14.6x    frame=23962 fps=349 q=-0.0 size=N/A time=00:16:39.41 bitrate=N/A speed=14.6x    frame=24153 fps=349 q=-0.0 size=N/A time=00:16:47.38 bitrate=N/A speed=14.6x    frame=24341 fps=349 q=-0.0 size=N/A time=00:16:55.22 bitrate=N/A speed=14.6x    frame=24531 fps=350 q=-0.0 size=N/A time=00:17:03.14 bitrate=N/A speed=14.6x    frame=24726 fps=350 q=-0.0 size=N/A time=00:17:11.28 bitrate=N/A speed=14.6x    frame=24913 fps=350 q=-0.0 size=N/A time=00:17:19.07 bitrate=N/A speed=14.6x    frame=25108 fps=350 q=-0.0 size=N/A time=00:17:27.21 bitrate=N/A speed=14.6x    frame=25294 fps=350 q=-0.0 size=N/A time=00:17:34.97 bitrate=N/A speed=14.6x    frame=25487 fps=350 q=-0.0 size=N/A time=00:17:43.02 bitrate=N/A speed=14.6x    frame=25674 fps=350 q=-0.0 size=N/A time=00:17:50.81 bitrate=N/A speed=14.6x    frame=25858 fps=350 q=-0.0 size=N/A time=00:17:58.49 bitrate=N/A speed=14.6x    frame=26037 fps=350 q=-0.0 size=N/A time=00:18:05.95 bitrate=N/A speed=14.6x    frame=26231 fps=351 q=-0.0 size=N/A time=00:18:14.05 bitrate=N/A speed=14.6x    frame=26415 fps=351 q=-0.0 size=N/A time=00:18:21.72 bitrate=N/A speed=14.6x    frame=26607 fps=351 q=-0.0 size=N/A time=00:18:29.73 bitrate=N/A speed=14.6x    frame=26796 fps=351 q=-0.0 size=N/A time=00:18:37.61 bitrate=N/A speed=14.6x    frame=26980 fps=351 q=-0.0 size=N/A time=00:18:45.29 bitrate=N/A speed=14.6x    frame=27149 fps=351 q=-0.0 size=N/A time=00:18:52.33 bitrate=N/A speed=14.6x    frame=27327 fps=351 q=-0.0 size=N/A time=00:18:59.76 bitrate=N/A speed=14.6x    frame=27503 fps=351 q=-0.0 size=N/A time=00:19:07.10 bitrate=N/A speed=14.6x    frame=27683 fps=351 q=-0.0 size=N/A time=00:19:14.61 bitrate=N/A speed=14.6x    frame=27858 fps=351 q=-0.0 size=N/A time=00:19:21.91 bitrate=N/A speed=14.6x    frame=28036 fps=351 q=-0.0 size=N/A time=00:19:29.33 bitrate=N/A speed=14.6x    frame=28222 fps=351 q=-0.0 size=N/A time=00:19:37.09 bitrate=N/A speed=14.6x    frame=28409 fps=351 q=-0.0 size=N/A time=00:19:44.89 bitrate=N/A speed=14.6x    frame=28594 fps=351 q=-0.0 size=N/A time=00:19:52.60 bitrate=N/A speed=14.6x    frame=28763 fps=351 q=-0.0 size=N/A time=00:19:59.65 bitrate=N/A speed=14.6x    frame=28930 fps=350 q=-0.0 size=N/A time=00:20:06.62 bitrate=N/A speed=14.6x    frame=29101 fps=350 q=-0.0 size=N/A time=00:20:13.75 bitrate=N/A speed=14.6x    frame=29278 fps=350 q=-0.0 size=N/A time=00:20:21.13 bitrate=N/A speed=14.6x    frame=29441 fps=350 q=-0.0 size=N/A time=00:20:27.93 bitrate=N/A speed=14.6x    frame=29606 fps=350 q=-0.0 size=N/A time=00:20:34.81 bitrate=N/A speed=14.6x    frame=29773 fps=350 q=-0.0 size=N/A time=00:20:41.78 bitrate=N/A speed=14.6x    frame=29938 fps=350 q=-0.0 size=N/A time=00:20:48.66 bitrate=N/A speed=14.6x    frame=30092 fps=349 q=-0.0 size=N/A time=00:20:55.08 bitrate=N/A speed=14.6x    frame=30274 fps=349 q=-0.0 size=N/A time=00:21:02.67 bitrate=N/A speed=14.6x    frame=30454 fps=349 q=-0.0 size=N/A time=00:21:10.18 bitrate=N/A speed=14.6x    frame=30637 fps=349 q=-0.0 size=N/A time=00:21:17.81 bitrate=N/A speed=14.6x    frame=30820 fps=349 q=-0.0 size=N/A time=00:21:25.45 bitrate=N/A speed=14.6x    frame=31008 fps=349 q=-0.0 size=N/A time=00:21:33.29 bitrate=N/A speed=14.6x    frame=31199 fps=350 q=-0.0 size=N/A time=00:21:41.25 bitrate=N/A speed=14.6x    frame=31384 fps=350 q=-0.0 size=N/A time=00:21:48.97 bitrate=N/A speed=14.6x    frame=31559 fps=350 q=-0.0 size=N/A time=00:21:56.27 bitrate=N/A speed=14.6x    frame=31746 fps=350 q=-0.0 size=N/A time=00:22:04.07 bitrate=N/A speed=14.6x    frame=31917 fps=349 q=-0.0 size=N/A time=00:22:11.20 bitrate=N/A speed=14.6x    frame=32087 fps=349 q=-0.0 size=N/A time=00:22:18.29 bitrate=N/A speed=14.6x    frame=32273 fps=349 q=-0.0 size=N/A time=00:22:26.05 bitrate=N/A speed=14.6x    frame=32447 fps=349 q=-0.0 size=N/A time=00:22:33.31 bitrate=N/A speed=14.6x    frame=32615 fps=349 q=-0.0 size=N/A time=00:22:40.31 bitrate=N/A speed=14.6x    frame=32750 fps=349 q=-0.0 size=N/A time=00:22:45.94 bitrate=N/A speed=14.5x    frame=32914 fps=349 q=-0.0 size=N/A time=00:22:52.78 bitrate=N/A speed=14.5x    frame=33088 fps=349 q=-0.0 size=N/A time=00:23:00.04 bitrate=N/A speed=14.5x    frame=33262 fps=349 q=-0.0 size=N/A time=00:23:07.30 bitrate=N/A speed=14.5x    frame=33411 fps=348 q=-0.0 size=N/A time=00:23:13.51 bitrate=N/A speed=14.5x    frame=33561 fps=348 q=-0.0 size=N/A time=00:23:19.77 bitrate=N/A speed=14.5x    frame=33711 fps=348 q=-0.0 size=N/A time=00:23:26.02 bitrate=N/A speed=14.5x    frame=33828 fps=347 q=-0.0 size=N/A time=00:23:30.90 bitrate=N/A speed=14.5x    frame=33968 fps=347 q=-0.0 size=N/A time=00:23:36.74 bitrate=N/A speed=14.5x    frame=34128 fps=346 q=-0.0 size=N/A time=00:23:43.42 bitrate=N/A speed=14.4x    frame=34281 fps=346 q=-0.0 size=N/A time=00:23:49.80 bitrate=N/A speed=14.4x    frame=34402 fps=346 q=-0.0 size=N/A time=00:23:54.85 bitrate=N/A speed=14.4x    frame=34568 fps=345 q=-0.0 size=N/A time=00:24:01.77 bitrate=N/A speed=14.4x    [Parsed_psnr_16 @ 000001a874767d00] PSNR y:48.956562 u:50.329002 v:50.378548 average:49.374248 min:38.004698 max:inf
[out#0/null @ 000001a867a5dec0] video:14903KiB audio:271276KiB subtitle:0KiB other streams:0KiB global headers:0KiB muxing overhead: unknown
frame=34683 fps=345 q=-0.0 Lsize=N/A time=00:24:06.57 bitrate=N/A speed=14.4x    
